<svg xmlns="http://www.w3.org/2000/svg" viewBox="0 0 526.14 518.27"><defs><style>.cls-1{fill:#74f5ff;}.cls-2{fill:#c5ffff;}.cls-3{fill:#0075f4;}.cls-4{fill:#0051aa;}.cls-5{fill:#b8e7ff;}.cls-6{fill:#6cf;}.cls-7{fill:#00a5ff;}.cls-8{fill:#a9ffff;}.cls-9{fill:#fff;stroke:#fff;stroke-miterlimit:10;stroke-width:10px;}.cls-10{fill:#e6e6e6;}</style></defs><title>未标题-1</title><g id="图层_1" data-name="图层 1"><polygon class="cls-1" points="507.27 213.2 477.22 383.64 448.98 223.48 507.27 213.2"/><polygon class="cls-2" points="476.24 383.81 433.59 309.94 448.41 225.96 476.24 383.81"/><polygon class="cls-1" points="476.26 385.82 366.57 366.48 432.94 310.8 476.26 385.82"/><polygon class="cls-3" points="476.08 386.81 421.39 432.7 366.69 367.52 476.08 386.81"/><polygon class="cls-2" points="420.62 433.34 342.67 498.76 365.74 367.93 420.62 433.34"/><polygon class="cls-4" points="364.74 367.86 341.52 499.52 166.99 499.52 364.74 367.86"/><polygon class="cls-1" points="363.78 367.29 167.97 497.67 277.37 367.29 363.78 367.29"/><polygon class="cls-3" points="432.43 309.92 366.16 365.53 389.18 235 432.43 309.92"/><polygon class="cls-5" points="388.11 235.32 365.02 366.29 278.21 366.29 388.11 235.32"/><polygon class="cls-6" points="447.79 223.69 432.82 308.6 389.71 233.94 447.79 223.69"/><polygon class="cls-5" points="507.1 212.22 448.81 222.5 420.57 62.35 507.1 212.22"/><polygon class="cls-5" points="447.69 222.7 389.54 232.95 407.13 133.2 447.69 222.7"/><polygon class="cls-7" points="447.23 219.27 407.44 131.45 419.59 62.52 447.23 219.27"/><polygon class="cls-1" points="418.91 60.62 406.52 130.93 322.71 116.16 418.91 60.62"/><polygon class="cls-3" points="406.34 131.91 388.67 232.13 322.25 117.09 406.34 131.91"/><polygon class="cls-6" points="387.56 232.2 239.49 146.71 321.06 117.02 387.56 232.2"/><polygon class="cls-5" points="418.41 59.76 321.47 115.73 254.77 0.2 280.57 9.59 402.09 53.82 418.41 59.76"/><polygon class="cls-1" points="320.55 116.14 238.89 145.87 253.98 0.84 320.55 116.14"/><polygon class="cls-8" points="253.07 0 237.89 145.79 88.88 59.76 253.07 0"/><polygon class="cls-6" points="387.19 234.85 277.07 366.09 210.44 310.17 387.19 234.85"/><polygon class="cls-7" points="276.43 366.85 166.3 498.1 209.8 310.95 276.43 366.85"/><polygon class="cls-4" points="208.79 310.88 165.04 499.11 31.01 386.64 208.79 310.88"/><polygon class="cls-3" points="386.75 233.95 209.88 309.33 194.76 223.61 386.75 233.95"/><polygon class="cls-7" points="208.93 309.73 32.27 385.02 193.84 224.1 208.93 309.73"/><polygon class="cls-4" points="193.01 223.52 30.39 385.47 0 213.12 193.01 223.52"/><polygon class="cls-5" points="386.86 232.96 194.45 222.59 89.27 61.14 237.62 146.79 193.73 220.29 194.59 220.81 238.49 147.29 386.86 232.96"/><polygon class="cls-7" points="193.2 222.53 0.24 212.13 87.72 60.61 193.2 222.53"/></g><g id="图层_2" data-name="图层 2"><line class="cls-9" x1="388.92" y1="233.57" x2="507.89" y2="212.59"/><line class="cls-9" x1="321.28" y1="120.15" x2="388.92" y2="233.57"/><line class="cls-9" x1="90.22" y1="61.11" x2="321.28" y2="120.15"/><line class="cls-9" x1="209.49" y1="310.03" x2="90.22" y2="61.11"/><line class="cls-9" x1="30.06" y1="386.5" x2="205.75" y2="310.03"/><line class="cls-9" x1="341.94" y1="500.02" x2="205.75" y2="310.03"/><line class="cls-9" x1="30.06" y1="386.5" x2="341.94" y2="500.02"/><circle class="cls-10" cx="321.28" cy="116.41" r="18.26"/><circle class="cls-10" cx="507.89" cy="212.59" r="18.26"/><circle class="cls-10" cx="388.92" cy="233.57" r="18.26"/><circle class="cls-10" cx="90.22" cy="61.11" r="18.26"/><circle class="cls-10" cx="209.49" cy="310.03" r="18.26"/><circle class="cls-10" cx="341.94" cy="500.02" r="18.26"/><circle class="cls-10" cx="30.06" cy="386.5" r="18.26"/></g></svg>